<?xml version="1.0" encoding="UTF-8" standalone="no"?>
<!-- Created with Inkscape (http://www.inkscape.org/) -->

<svg
   xmlns:dc="http://purl.org/dc/elements/1.1/"
   xmlns:cc="http://creativecommons.org/ns#"
   xmlns:rdf="http://www.w3.org/1999/02/22-rdf-syntax-ns#"
   xmlns:svg="http://www.w3.org/2000/svg"
   xmlns="http://www.w3.org/2000/svg"
   xmlns:sodipodi="http://sodipodi.sourceforge.net/DTD/sodipodi-0.dtd"
   xmlns:inkscape="http://www.inkscape.org/namespaces/inkscape"
   width="1024"
   height="1024"
   viewBox="0 0 270.93333 270.93334"
   version="1.1"
   id="svg949"
   sodipodi:docname="sdaps_favicon.svg"
   inkscape:version="0.92.2 5c3e80d, 2017-08-06">
  <defs
     id="defs943" />
  <sodipodi:namedview
     id="base"
     pagecolor="#ffffff"
     bordercolor="#666666"
     borderopacity="1.0"
     inkscape:pageopacity="0.0"
     inkscape:pageshadow="2"
     inkscape:zoom="0.73925781"
     inkscape:cx="267.15984"
     inkscape:cy="512"
     inkscape:document-units="mm"
     inkscape:current-layer="layer1"
     showgrid="false"
     units="px"
     inkscape:window-width="1680"
     inkscape:window-height="934"
     inkscape:window-x="35"
     inkscape:window-y="6"
     inkscape:window-maximized="0" />
  <metadata
     id="metadata946">
    <rdf:RDF>
      <cc:Work
         rdf:about="">
        <dc:format>image/svg+xml</dc:format>
        <dc:type
           rdf:resource="http://purl.org/dc/dcmitype/StillImage" />
        <dc:title />
      </cc:Work>
    </rdf:RDF>
  </metadata>
  <g
     inkscape:label="Layer 1"
     inkscape:groupmode="layer"
     id="layer1"
     transform="translate(0,-26.06665)">
    <rect
       style="fill:#ffffff;fill-opacity:1;stroke:none;stroke-width:7.90472746;stroke-linecap:round;stroke-linejoin:round;stroke-miterlimit:4;stroke-dasharray:none;stroke-dashoffset:0;stroke-opacity:1;paint-order:normal"
       id="rect1645"
       width="208.85236"
       height="208.82928"
       x="32.367245"
       y="57.562202" />
    <rect
       style="fill:#f44336;fill-opacity:0.49019608;stroke:none;stroke-width:4.93917656;stroke-linecap:round;stroke-linejoin:round;stroke-miterlimit:4;stroke-dasharray:none;stroke-dashoffset:0;stroke-opacity:1;paint-order:normal"
       id="rect1601"
       width="206.15269"
       height="102.00263"
       x="33.479404"
       y="163.31512"
       ry="0.95927244" />
    <rect
       style="fill:none;fill-opacity:1;stroke:#000000;stroke-width:13.22916667;stroke-linecap:round;stroke-linejoin:round;stroke-miterlimit:4;stroke-dasharray:none;stroke-dashoffset:0;stroke-opacity:1;paint-order:normal"
       id="rect1555"
       width="211.52126"
       height="210.08965"
       x="30.779745"
       y="57.562202"
       ry="3.7632623" />
    <flowRoot
       xml:space="preserve"
       id="flowRoot1557"
       style="fill:black;stroke:none;stroke-opacity:1;stroke-width:1px;stroke-linejoin:miter;stroke-linecap:butt;fill-opacity:1;font-family:sans-serif;font-style:normal;font-weight:normal;font-size:40px;line-height:125%;letter-spacing:0px;word-spacing:0px"><flowRegion
         id="flowRegion1559"><rect
           id="rect1561"
           width="798.09778"
           height="687.17572"
           x="151.5033"
           y="158.26685" /></flowRegion><flowPara
         id="flowPara1563" /></flowRoot>    <flowRoot
       xml:space="preserve"
       id="flowRoot1565"
       style="font-style:normal;font-weight:normal;font-size:40px;line-height:125%;font-family:sans-serif;letter-spacing:0px;word-spacing:0px;fill:#000000;fill-opacity:1;stroke:none;stroke-width:1px;stroke-linecap:butt;stroke-linejoin:miter;stroke-opacity:1"
       transform="matrix(0.26458333,0,0,0.26458333,0,26.06665)"><flowRegion
         id="flowRegion1567"><rect
           id="rect1569"
           width="304.35931"
           height="351.7041"
           x="208.31705"
           y="282.71597" /></flowRegion><flowPara
         id="flowPara1571"
         style="font-size:933.33334509px">✘</flowPara></flowRoot>    <g
       aria-label="✘"
       transform="matrix(0.26458333,0,0,0.26458333,-31.381468,-28.597842)"
       style="font-style:normal;font-weight:normal;font-size:800px;line-height:125%;font-family:sans-serif;letter-spacing:0px;word-spacing:0px;fill:#000000;fill-opacity:1;stroke:none;stroke-width:1px;stroke-linecap:butt;stroke-linejoin:miter;stroke-opacity:1"
       id="flowRoot1573">
      <path
         d="M 503.40039,692.36645 428.98633,390.0227 q -4.6875,-14.64844 -4.6875,-26.36719 0,-35.15625 19.92187,-59.76562 19.92188,-24.60938 44.53125,-24.60938 44.53125,0 93.16407,62.10938 48.63281,61.52344 89.0625,164.64844 11.13281,-8.78907 97.26562,-103.125 70.89844,-77.34375 92.57813,-93.75 22.26562,-16.40625 46.875,-16.40625 30.46875,0 56.25,29.88281 26.36718,29.29687 26.36718,60.9375 0,28.71094 -31.05468,30.46875 -10.54688,0 -13.47657,2.34375 l -2.92968,11.13281 q -1.75782,5.27344 -12.30469,18.75 -32.8125,36.32813 -96.09375,136.52344 -70.89844,109.57031 -80.27344,120.11719 -14.64844,18.16406 -14.64844,37.5 0,40.42968 25.78125,110.15625 26.36719,69.72656 71.48438,133.00781 19.33594,29.29691 19.33594,38.67191 0,5.8593 -9.96094,21.6797 4.10156,5.2734 4.10156,10.5468 0,11.1328 -7.03125,16.4063 -7.03125,5.2734 -32.8125,18.75 0,34.5703 -28.71094,34.5703 -12.30468,0 -34.57031,-14.6484 -22.26562,-14.6485 -30.46875,-27.5391 -8.78906,-10.5469 -17.57812,-14.0625 -9.375,-2.3438 -14.0625,-5.8594 -4.6875,-4.1015 -22.26563,-22.8515 -1.17187,-2.3438 -14.0625,-9.961 -16.40625,-7.0312 -31.64062,-36.91405 -7.61719,-18.75 -40.42969,-69.72656 -191.60156,206.83591 -202.14844,217.96871 -10.54687,11.7188 -25.19531,24.6094 -14.64844,12.8906 -23.4375,12.8906 -9.96094,0 -16.40625,-5.8593 -5.85938,-5.8594 -6.44531,-38.6719 l -7.61719,-8.2031 q -3.51563,-3.5157 -7.03125,-18.1641 l -11.71875,-5.8594 q -9.375,-17.5781 -31.64063,-36.914 l -1.17187,-18.1641 -3.51563,-15.8203 q 0,-7.0313 7.03125,-22.8516 7.61719,-15.82029 73.24219,-94.92185 65.625,-79.6875 80.85938,-94.33594 57.42187,-53.90625 60.9375,-70.89843 12.30468,-46.28907 41.01562,-55.07813 z"
         style="font-size:1200px"
         id="path1647" />
    </g>
    <rect
       style="fill:#f44336;fill-opacity:1;stroke:#f44336;stroke-width:5.39135885;stroke-linecap:round;stroke-linejoin:round;stroke-miterlimit:4;stroke-dasharray:none;stroke-dashoffset:0;stroke-opacity:1;paint-order:normal"
       id="rect826"
       width="241.4857"
       height="5.7264643"
       x="15.797522"
       y="159.11362"
       ry="2.8632321" />
  </g>
</svg>
